<svg xmlns="http://www.w3.org/2000/svg" width="32" height="64" viewBox="0 0 32 64" shape-rendering="crispEdges">
  <rect x="0" y="0" width="32" height="64" fill="#7a6244"/>
  <rect x="2" y="2" width="28" height="60" fill="#8b7355"/>
  <rect x="4" y="4" width="24" height="26" fill="#6b5535"/>
  <rect x="8" y="8" width="16" height="1" fill="#7a6244"/>
  <rect x="6" y="14" width="18" height="1" fill="#7a6244"/>
  <rect x="10" y="20" width="12" height="1" fill="#7a6244"/>
  <rect x="14" y="24" width="4" height="3" fill="#adb5bd"/>
  <rect x="2" y="32" width="28" height="2" fill="#5c4a32"/>
  <rect x="4" y="36" width="24" height="24" fill="#6b5535"/>
  <rect x="8" y="40" width="14" height="1" fill="#7a6244"/>
  <rect x="6" y="48" width="18" height="1" fill="#7a6244"/>
  <rect x="14" y="54" width="4" height="3" fill="#adb5bd"/>
  <rect x="10" y="8" width="12" height="4" fill="#f8f9fa"/>
  <rect x="11" y="9" width="10" height="2" fill="#dee2e6"/>
  <rect x="0" y="0" width="32" height="2" fill="#5c4a32"/>
  <rect x="0" y="62" width="32" height="2" fill="#5c4a32"/>
</svg>
