<svg xmlns="http://www.w3.org/2000/svg" width="32" height="32" viewBox="0 0 32 32" shape-rendering="crispEdges">
  <rect x="4" y="24" width="24" height="8" fill="#dee2e6"/>
  <rect x="6" y="26" width="20" height="4" fill="#ced4da"/>
  <rect x="5" y="22" width="22" height="2" fill="#868e96"/>
  <rect x="6" y="4" width="20" height="18" fill="#a5d8ff"/>
  <rect x="8" y="6" width="16" height="14" fill="#d0ebff"/>
  <rect x="9" y="7" width="2" height="10" fill="#e7f5ff"/>
  <rect x="13" y="7" width="1" height="8" fill="#e7f5ff"/>
  <rect x="10" y="12" width="3" height="3" fill="#339af0"/>
  <rect x="17" y="11" width="3" height="3" fill="#339af0"/>
  <rect x="13" y="16" width="3" height="3" fill="#339af0"/>
  <rect x="20" y="15" width="2" height="2" fill="#f06595"/>
  <rect x="10" y="17" width="2" height="2" fill="#f06595"/>
  <rect x="14" y="8" width="4" height="4" fill="#f8f9fa"/>
  <rect x="15" y="9" width="2" height="2" fill="#e9ecef"/>
  <rect x="14" y="2" width="4" height="3" fill="#868e96"/>
  <rect x="15" y="3" width="2" height="1" fill="#adb5bd"/>
</svg>
