<svg xmlns="http://www.w3.org/2000/svg" width="64" height="64" viewBox="0 0 64 64" shape-rendering="crispEdges">
  <rect x="0" y="0" width="64" height="64" fill="#6c757d"/>
  <rect x="2" y="2" width="60" height="60" fill="#5c636a"/>
  <rect x="20" y="0" width="24" height="4" fill="#868e96"/>
  <rect x="24" y="1" width="2" height="2" fill="#495057"/>
  <rect x="30" y="1" width="2" height="2" fill="#495057"/>
  <rect x="36" y="1" width="2" height="2" fill="#495057"/>
  <rect x="6" y="6" width="52" height="28" fill="#a5d8ff"/>
  <rect x="10" y="10" width="44" height="20" fill="#d0ebff"/>
  <rect x="12" y="12" width="2" height="16" fill="#e7f5ff"/>
  <rect x="16" y="12" width="1" height="12" fill="#e7f5ff"/>
  <rect x="14" y="24" width="36" height="2" fill="#74c0fc"/>
  <rect x="26" y="18" width="6" height="6" fill="#c3fae8"/>
  <rect x="27" y="19" width="4" height="4" fill="#96f2d7"/>
  <rect x="26" y="34" width="12" height="2" fill="#adb5bd"/>
  <rect x="4" y="38" width="56" height="22" fill="#495057"/>
  <rect x="28" y="48" width="8" height="3" fill="#adb5bd"/>
  <rect x="48" y="40" width="10" height="8" fill="#343a40"/>
  <rect x="50" y="42" width="3" height="2" fill="#69db7c"/>
  <rect x="54" y="42" width="3" height="2" fill="#ff6b6b"/>
  <rect x="51" y="45" width="2" height="2" fill="#868e96"/>
</svg>
