<svg xmlns="http://www.w3.org/2000/svg" width="32" height="32" viewBox="0 0 32 32" shape-rendering="crispEdges">
  <rect x="0" y="0" width="32" height="32" fill="#495057"/>
  <rect x="2" y="2" width="28" height="28" fill="#3d4349"/>
  <rect x="3" y="3" width="26" height="6" fill="#343a40"/>
  <rect x="5" y="4" width="10" height="4" fill="#212529"/>
  <rect x="6" y="5" width="8" height="2" fill="#ff6b6b"/>
  <rect x="18" y="4" width="4" height="4" fill="#868e96"/>
  <rect x="19" y="5" width="2" height="2" fill="#adb5bd"/>
  <rect x="24" y="5" width="2" height="2" fill="#ff6b6b"/>
  <rect x="4" y="10" width="24" height="18" fill="#343a40"/>
  <rect x="6" y="12" width="20" height="14" fill="#2b2b2b"/>
  <rect x="6" y="17" width="20" height="4" fill="#ff922b"/>
  <rect x="8" y="18" width="16" height="2" fill="#ffd43b"/>
  <rect x="10" y="18" width="12" height="1" fill="#fff3bf"/>
  <rect x="26" y="14" width="2" height="2" fill="#adb5bd"/>
  <rect x="27" y="12" width="2" height="2" fill="#adb5bd"/>
  <rect x="14" y="26" width="4" height="2" fill="#868e96"/>
</svg>
