<svg xmlns="http://www.w3.org/2000/svg" width="32" height="64" viewBox="0 0 32 64" shape-rendering="crispEdges">
  <rect x="0" y="0" width="32" height="64" fill="#495057"/>
  <rect x="2" y="2" width="28" height="60" fill="#5c636a"/>
  <rect x="4" y="4" width="24" height="26" fill="#a5d8ff"/>
  <rect x="6" y="6" width="20" height="22" fill="#d0ebff"/>
  <rect x="7" y="7" width="2" height="18" fill="#e7f5ff"/>
  <rect x="10" y="10" width="4" height="10" fill="#74c0fc"/>
  <rect x="11" y="11" width="2" height="8" fill="#a5d8ff"/>
  <rect x="17" y="8" width="6" height="12" fill="#74c0fc"/>
  <rect x="19" y="6" width="2" height="2" fill="#74c0fc"/>
  <rect x="18" y="9" width="4" height="10" fill="#a5d8ff"/>
  <rect x="14" y="24" width="4" height="3" fill="#adb5bd"/>
  <rect x="2" y="32" width="28" height="2" fill="#3d4349"/>
  <rect x="4" y="36" width="24" height="24" fill="#a5d8ff"/>
  <rect x="6" y="38" width="20" height="20" fill="#d0ebff"/>
  <rect x="7" y="39" width="2" height="16" fill="#e7f5ff"/>
  <rect x="10" y="40" width="3" height="14" fill="#74c0fc"/>
  <rect x="11" y="41" width="1" height="12" fill="#a5d8ff"/>
  <rect x="17" y="39" width="2" height="14" fill="#74c0fc"/>
  <rect x="20" y="39" width="2" height="14" fill="#74c0fc"/>
  <rect x="23" y="39" width="2" height="14" fill="#74c0fc"/>
  <rect x="17" y="46" width="2" height="6" fill="#ffd43b"/>
  <rect x="20" y="44" width="2" height="8" fill="#69db7c"/>
  <rect x="23" y="48" width="2" height="4" fill="#ff6b6b"/>
  <rect x="14" y="56" width="4" height="3" fill="#adb5bd"/>
</svg>
