<svg xmlns="http://www.w3.org/2000/svg" width="32" height="32" viewBox="0 0 32 32" shape-rendering="crispEdges">
  <rect x="0" y="0" width="32" height="32" fill="#e9ecef"/>
  <rect x="2" y="2" width="28" height="28" fill="#f8f9fa"/>
  <rect x="6" y="6" width="20" height="20" fill="#ff6b6b"/>
  <rect x="8" y="8" width="16" height="16" fill="#f8f9fa"/>
  <rect x="10" y="10" width="12" height="12" fill="#fa5252"/>
  <rect x="12" y="12" width="8" height="8" fill="#f8f9fa"/>
  <rect x="13" y="13" width="6" height="6" fill="#e03131"/>
  <rect x="14" y="14" width="4" height="4" fill="#ff8787"/>
  <rect x="15" y="15" width="2" height="2" fill="#ffc9c9"/>
  <rect x="4" y="27" width="8" height="3" fill="#dee2e6"/>
  <rect x="6" y="28" width="4" height="1" fill="#868e96"/>
  <rect x="22" y="28" width="2" height="2" fill="#69db7c"/>
  <rect x="0" y="0" width="32" height="1" fill="#ced4da"/>
  <rect x="0" y="31" width="32" height="1" fill="#ced4da"/>
  <rect x="0" y="0" width="1" height="32" fill="#ced4da"/>
  <rect x="31" y="0" width="1" height="32" fill="#ced4da"/>
</svg>
