<svg xmlns="http://www.w3.org/2000/svg" width="32" height="32" viewBox="0 0 32 32" shape-rendering="crispEdges">
  <rect x="0" y="4" width="32" height="16" fill="#5c4a32"/>
  <rect x="1" y="4" width="30" height="4" fill="#7a6244"/>
  <rect x="2" y="5" width="28" height="1" fill="#8b7355"/>
  <rect x="4" y="10" width="24" height="1" fill="#8b7355"/>
  <rect x="0" y="3" width="32" height="1" fill="#3d2e1c"/>
  <rect x="0" y="19" width="32" height="1" fill="#3d2e1c"/>
  <rect x="0" y="4" width="1" height="16" fill="#4a3a25"/>
  <rect x="31" y="4" width="1" height="16" fill="#4a3a25"/>
  <rect x="2" y="20" width="3" height="12" fill="#3d2e1c"/>
  <rect x="27" y="20" width="3" height="12" fill="#3d2e1c"/>
  <rect x="3" y="20" width="1" height="11" fill="#4a3a25"/>
  <rect x="28" y="20" width="1" height="11" fill="#4a3a25"/>
  <rect x="6" y="1" width="3" height="3" fill="#a5d8ff"/>
  <rect x="14" y="2" width="2" height="2" fill="#ffd43b"/>
  <rect x="22" y="1" width="3" height="3" fill="#69db7c"/>
</svg>
