<svg xmlns="http://www.w3.org/2000/svg" width="32" height="32" viewBox="0 0 32 32" shape-rendering="crispEdges">
  <rect x="0" y="0" width="32" height="32" fill="#868e96"/>
  <rect x="2" y="2" width="28" height="28" fill="#6c757d"/>
  <rect x="3" y="3" width="26" height="6" fill="#5c636a"/>
  <rect x="5" y="4" width="10" height="4" fill="#343a40"/>
  <rect x="6" y="5" width="8" height="2" fill="#69db7c"/>
  <rect x="18" y="4" width="4" height="4" fill="#adb5bd"/>
  <rect x="19" y="5" width="2" height="2" fill="#ced4da"/>
  <rect x="24" y="5" width="2" height="2" fill="#69db7c"/>
  <rect x="4" y="10" width="24" height="18" fill="#495057"/>
  <rect x="6" y="12" width="20" height="14" fill="#3d4349"/>
  <rect x="10" y="14" width="12" height="8" fill="#495057"/>
  <rect x="26" y="14" width="2" height="8" fill="#adb5bd"/>
  <rect x="8" y="28" width="4" height="1" fill="#5c636a"/>
  <rect x="14" y="28" width="4" height="1" fill="#5c636a"/>
  <rect x="20" y="28" width="4" height="1" fill="#5c636a"/>
</svg>
