<svg xmlns="http://www.w3.org/2000/svg" width="96" height="128" viewBox="0 0 96 128" shape-rendering="crispEdges">
  <rect x="11" y="2" width="10" height="1" fill="#4a3728"/>
  <rect x="10" y="3" width="12" height="2" fill="#4a3728"/>
  <rect x="9" y="5" width="14" height="3" fill="#4a3728"/>
  <rect x="12" y="3" width="6" height="1" fill="#362818"/>
  <rect x="10" y="5" width="8" height="1" fill="#362818"/>
  <rect x="10" y="8" width="12" height="8" fill="#ffd8a8"/>
  <rect x="11" y="16" width="10" height="1" fill="#ffd8a8"/>
  <rect x="11" y="15" width="10" height="1" fill="#f0c090"/>
  <rect x="8" y="10" width="2" height="3" fill="#ffd8a8"/>
  <rect x="8" y="12" width="2" height="1" fill="#f0c090"/>
  <rect x="22" y="10" width="2" height="3" fill="#ffd8a8"/>
  <rect x="22" y="12" width="2" height="1" fill="#f0c090"/>
  <rect x="9" y="8" width="1" height="8" fill="#362818"/>
  <rect x="22" y="8" width="1" height="8" fill="#362818"/>
  <rect x="11" y="17" width="10" height="1" fill="#362818"/>
  <rect x="10" y="16" width="1" height="1" fill="#362818"/>
  <rect x="21" y="16" width="1" height="1" fill="#362818"/>
  <rect x="12" y="11" width="2" height="2" fill="#2b2b2b"/>
  <rect x="18" y="11" width="2" height="2" fill="#2b2b2b"/>
  <rect x="12" y="11" width="1" height="1" fill="#ffffff"/>
  <rect x="18" y="11" width="1" height="1" fill="#ffffff"/>
  <rect x="15" y="13" width="2" height="1" fill="#f0c090"/>
  <rect x="14" y="14" width="4" height="1" fill="#f0c090"/>
  <rect x="14" y="17" width="4" height="1" fill="#ffd8a8"/>
  <rect x="11" y="18" width="10" height="6" fill="#f8f9fa"/>
  <rect x="11" y="18" width="1" height="6" fill="#dee2e6"/>
  <rect x="20" y="18" width="1" height="6" fill="#dee2e6"/>
  <rect x="11" y="23" width="10" height="1" fill="#dee2e6"/>
  <rect x="14" y="18" width="4" height="3" fill="#4dabf7"/>
  <rect x="13" y="20" width="1" height="1" fill="#dee2e6"/>
  <rect x="18" y="20" width="1" height="1" fill="#dee2e6"/>
  <rect x="9" y="18" width="2" height="5" fill="#f8f9fa"/>
  <rect x="9" y="23" width="2" height="1" fill="#ffd8a8"/>
  <rect x="21" y="18" width="2" height="5" fill="#f8f9fa"/>
  <rect x="21" y="23" width="2" height="1" fill="#ffd8a8"/>
  <rect x="12" y="24" width="3" height="4" fill="#495057"/>
  <rect x="17" y="24" width="3" height="4" fill="#495057"/>
  <rect x="12" y="28" width="3" height="3" fill="#343a40"/>
  <rect x="17" y="28" width="3" height="3" fill="#343a40"/>
  <rect x="43" y="2" width="10" height="1" fill="#4a3728"/>
  <rect x="42" y="3" width="12" height="2" fill="#4a3728"/>
  <rect x="41" y="5" width="14" height="3" fill="#4a3728"/>
  <rect x="44" y="3" width="6" height="1" fill="#362818"/>
  <rect x="42" y="5" width="8" height="1" fill="#362818"/>
  <rect x="42" y="8" width="12" height="8" fill="#ffd8a8"/>
  <rect x="43" y="16" width="10" height="1" fill="#ffd8a8"/>
  <rect x="43" y="15" width="10" height="1" fill="#f0c090"/>
  <rect x="40" y="10" width="2" height="3" fill="#ffd8a8"/>
  <rect x="40" y="12" width="2" height="1" fill="#f0c090"/>
  <rect x="54" y="10" width="2" height="3" fill="#ffd8a8"/>
  <rect x="54" y="12" width="2" height="1" fill="#f0c090"/>
  <rect x="41" y="8" width="1" height="8" fill="#362818"/>
  <rect x="54" y="8" width="1" height="8" fill="#362818"/>
  <rect x="43" y="17" width="10" height="1" fill="#362818"/>
  <rect x="42" y="16" width="1" height="1" fill="#362818"/>
  <rect x="53" y="16" width="1" height="1" fill="#362818"/>
  <rect x="44" y="11" width="2" height="2" fill="#2b2b2b"/>
  <rect x="50" y="11" width="2" height="2" fill="#2b2b2b"/>
  <rect x="44" y="11" width="1" height="1" fill="#ffffff"/>
  <rect x="50" y="11" width="1" height="1" fill="#ffffff"/>
  <rect x="47" y="13" width="2" height="1" fill="#f0c090"/>
  <rect x="46" y="14" width="4" height="1" fill="#f0c090"/>
  <rect x="46" y="17" width="4" height="1" fill="#ffd8a8"/>
  <rect x="43" y="18" width="10" height="6" fill="#f8f9fa"/>
  <rect x="43" y="18" width="1" height="6" fill="#dee2e6"/>
  <rect x="52" y="18" width="1" height="6" fill="#dee2e6"/>
  <rect x="43" y="23" width="10" height="1" fill="#dee2e6"/>
  <rect x="46" y="18" width="4" height="3" fill="#4dabf7"/>
  <rect x="45" y="20" width="1" height="1" fill="#dee2e6"/>
  <rect x="50" y="20" width="1" height="1" fill="#dee2e6"/>
  <rect x="41" y="17" width="2" height="5" fill="#f8f9fa"/>
  <rect x="41" y="22" width="2" height="1" fill="#ffd8a8"/>
  <rect x="53" y="19" width="2" height="5" fill="#f8f9fa"/>
  <rect x="53" y="24" width="2" height="1" fill="#ffd8a8"/>
  <rect x="43" y="24" width="3" height="4" fill="#495057"/>
  <rect x="43" y="28" width="3" height="3" fill="#343a40"/>
  <rect x="50" y="24" width="3" height="3" fill="#495057"/>
  <rect x="50" y="27" width="3" height="3" fill="#343a40"/>
  <rect x="75" y="2" width="10" height="1" fill="#4a3728"/>
  <rect x="74" y="3" width="12" height="2" fill="#4a3728"/>
  <rect x="73" y="5" width="14" height="3" fill="#4a3728"/>
  <rect x="76" y="3" width="6" height="1" fill="#362818"/>
  <rect x="74" y="5" width="8" height="1" fill="#362818"/>
  <rect x="74" y="8" width="12" height="8" fill="#ffd8a8"/>
  <rect x="75" y="16" width="10" height="1" fill="#ffd8a8"/>
  <rect x="75" y="15" width="10" height="1" fill="#f0c090"/>
  <rect x="72" y="10" width="2" height="3" fill="#ffd8a8"/>
  <rect x="72" y="12" width="2" height="1" fill="#f0c090"/>
  <rect x="86" y="10" width="2" height="3" fill="#ffd8a8"/>
  <rect x="86" y="12" width="2" height="1" fill="#f0c090"/>
  <rect x="73" y="8" width="1" height="8" fill="#362818"/>
  <rect x="86" y="8" width="1" height="8" fill="#362818"/>
  <rect x="75" y="17" width="10" height="1" fill="#362818"/>
  <rect x="74" y="16" width="1" height="1" fill="#362818"/>
  <rect x="85" y="16" width="1" height="1" fill="#362818"/>
  <rect x="76" y="11" width="2" height="2" fill="#2b2b2b"/>
  <rect x="82" y="11" width="2" height="2" fill="#2b2b2b"/>
  <rect x="76" y="11" width="1" height="1" fill="#ffffff"/>
  <rect x="82" y="11" width="1" height="1" fill="#ffffff"/>
  <rect x="79" y="13" width="2" height="1" fill="#f0c090"/>
  <rect x="78" y="14" width="4" height="1" fill="#f0c090"/>
  <rect x="78" y="17" width="4" height="1" fill="#ffd8a8"/>
  <rect x="75" y="18" width="10" height="6" fill="#f8f9fa"/>
  <rect x="75" y="18" width="1" height="6" fill="#dee2e6"/>
  <rect x="84" y="18" width="1" height="6" fill="#dee2e6"/>
  <rect x="75" y="23" width="10" height="1" fill="#dee2e6"/>
  <rect x="78" y="18" width="4" height="3" fill="#4dabf7"/>
  <rect x="77" y="20" width="1" height="1" fill="#dee2e6"/>
  <rect x="82" y="20" width="1" height="1" fill="#dee2e6"/>
  <rect x="85" y="17" width="2" height="5" fill="#f8f9fa"/>
  <rect x="85" y="22" width="2" height="1" fill="#ffd8a8"/>
  <rect x="73" y="19" width="2" height="5" fill="#f8f9fa"/>
  <rect x="73" y="24" width="2" height="1" fill="#ffd8a8"/>
  <rect x="82" y="24" width="3" height="4" fill="#495057"/>
  <rect x="82" y="28" width="3" height="3" fill="#343a40"/>
  <rect x="75" y="24" width="3" height="3" fill="#495057"/>
  <rect x="75" y="27" width="3" height="3" fill="#343a40"/>
  <rect x="11" y="34" width="10" height="1" fill="#4a3728"/>
  <rect x="10" y="35" width="12" height="2" fill="#4a3728"/>
  <rect x="9" y="37" width="14" height="12" fill="#4a3728"/>
  <rect x="12" y="35" width="6" height="1" fill="#362818"/>
  <rect x="10" y="38" width="10" height="1" fill="#362818"/>
  <rect x="11" y="42" width="8" height="1" fill="#362818"/>
  <rect x="9" y="40" width="1" height="8" fill="#362818"/>
  <rect x="22" y="40" width="1" height="8" fill="#362818"/>
  <rect x="11" y="49" width="10" height="1" fill="#362818"/>
  <rect x="10" y="48" width="1" height="1" fill="#362818"/>
  <rect x="21" y="48" width="1" height="1" fill="#362818"/>
  <rect x="14" y="49" width="4" height="1" fill="#ffd8a8"/>
  <rect x="11" y="50" width="10" height="6" fill="#f8f9fa"/>
  <rect x="11" y="50" width="1" height="6" fill="#dee2e6"/>
  <rect x="20" y="50" width="1" height="6" fill="#dee2e6"/>
  <rect x="11" y="55" width="10" height="1" fill="#dee2e6"/>
  <rect x="15" y="51" width="2" height="3" fill="#dee2e6"/>
  <rect x="9" y="50" width="2" height="5" fill="#f8f9fa"/>
  <rect x="9" y="55" width="2" height="1" fill="#ffd8a8"/>
  <rect x="21" y="50" width="2" height="5" fill="#f8f9fa"/>
  <rect x="21" y="55" width="2" height="1" fill="#ffd8a8"/>
  <rect x="12" y="56" width="3" height="4" fill="#495057"/>
  <rect x="17" y="56" width="3" height="4" fill="#495057"/>
  <rect x="12" y="60" width="3" height="3" fill="#343a40"/>
  <rect x="17" y="60" width="3" height="3" fill="#343a40"/>
  <rect x="43" y="34" width="10" height="1" fill="#4a3728"/>
  <rect x="42" y="35" width="12" height="2" fill="#4a3728"/>
  <rect x="41" y="37" width="14" height="12" fill="#4a3728"/>
  <rect x="44" y="35" width="6" height="1" fill="#362818"/>
  <rect x="42" y="38" width="10" height="1" fill="#362818"/>
  <rect x="43" y="42" width="8" height="1" fill="#362818"/>
  <rect x="41" y="40" width="1" height="8" fill="#362818"/>
  <rect x="54" y="40" width="1" height="8" fill="#362818"/>
  <rect x="43" y="49" width="10" height="1" fill="#362818"/>
  <rect x="42" y="48" width="1" height="1" fill="#362818"/>
  <rect x="53" y="48" width="1" height="1" fill="#362818"/>
  <rect x="46" y="49" width="4" height="1" fill="#ffd8a8"/>
  <rect x="43" y="50" width="10" height="6" fill="#f8f9fa"/>
  <rect x="43" y="50" width="1" height="6" fill="#dee2e6"/>
  <rect x="52" y="50" width="1" height="6" fill="#dee2e6"/>
  <rect x="43" y="55" width="10" height="1" fill="#dee2e6"/>
  <rect x="47" y="51" width="2" height="3" fill="#dee2e6"/>
  <rect x="41" y="49" width="2" height="5" fill="#f8f9fa"/>
  <rect x="41" y="54" width="2" height="1" fill="#ffd8a8"/>
  <rect x="53" y="51" width="2" height="5" fill="#f8f9fa"/>
  <rect x="53" y="56" width="2" height="1" fill="#ffd8a8"/>
  <rect x="43" y="56" width="3" height="4" fill="#495057"/>
  <rect x="43" y="60" width="3" height="3" fill="#343a40"/>
  <rect x="50" y="56" width="3" height="3" fill="#495057"/>
  <rect x="50" y="59" width="3" height="3" fill="#343a40"/>
  <rect x="75" y="34" width="10" height="1" fill="#4a3728"/>
  <rect x="74" y="35" width="12" height="2" fill="#4a3728"/>
  <rect x="73" y="37" width="14" height="12" fill="#4a3728"/>
  <rect x="76" y="35" width="6" height="1" fill="#362818"/>
  <rect x="74" y="38" width="10" height="1" fill="#362818"/>
  <rect x="75" y="42" width="8" height="1" fill="#362818"/>
  <rect x="73" y="40" width="1" height="8" fill="#362818"/>
  <rect x="86" y="40" width="1" height="8" fill="#362818"/>
  <rect x="75" y="49" width="10" height="1" fill="#362818"/>
  <rect x="74" y="48" width="1" height="1" fill="#362818"/>
  <rect x="85" y="48" width="1" height="1" fill="#362818"/>
  <rect x="78" y="49" width="4" height="1" fill="#ffd8a8"/>
  <rect x="75" y="50" width="10" height="6" fill="#f8f9fa"/>
  <rect x="75" y="50" width="1" height="6" fill="#dee2e6"/>
  <rect x="84" y="50" width="1" height="6" fill="#dee2e6"/>
  <rect x="75" y="55" width="10" height="1" fill="#dee2e6"/>
  <rect x="79" y="51" width="2" height="3" fill="#dee2e6"/>
  <rect x="85" y="49" width="2" height="5" fill="#f8f9fa"/>
  <rect x="85" y="54" width="2" height="1" fill="#ffd8a8"/>
  <rect x="73" y="51" width="2" height="5" fill="#f8f9fa"/>
  <rect x="73" y="56" width="2" height="1" fill="#ffd8a8"/>
  <rect x="82" y="56" width="3" height="4" fill="#495057"/>
  <rect x="82" y="60" width="3" height="3" fill="#343a40"/>
  <rect x="75" y="56" width="3" height="3" fill="#495057"/>
  <rect x="75" y="59" width="3" height="3" fill="#343a40"/>
  <rect x="11" y="66" width="10" height="1" fill="#4a3728"/>
  <rect x="10" y="67" width="12" height="2" fill="#4a3728"/>
  <rect x="9" y="69" width="13" height="3" fill="#4a3728"/>
  <rect x="12" y="67" width="6" height="1" fill="#362818"/>
  <rect x="10" y="69" width="6" height="1" fill="#362818"/>
  <rect x="10" y="72" width="12" height="8" fill="#ffd8a8"/>
  <rect x="11" y="80" width="10" height="1" fill="#ffd8a8"/>
  <rect x="11" y="79" width="10" height="1" fill="#f0c090"/>
  <rect x="22" y="74" width="2" height="3" fill="#ffd8a8"/>
  <rect x="22" y="76" width="2" height="1" fill="#f0c090"/>
  <rect x="9" y="72" width="1" height="8" fill="#362818"/>
  <rect x="22" y="72" width="1" height="8" fill="#362818"/>
  <rect x="11" y="81" width="10" height="1" fill="#362818"/>
  <rect x="10" y="80" width="1" height="1" fill="#362818"/>
  <rect x="21" y="80" width="1" height="1" fill="#362818"/>
  <rect x="12" y="75" width="2" height="2" fill="#2b2b2b"/>
  <rect x="12" y="75" width="1" height="1" fill="#ffffff"/>
  <rect x="10" y="77" width="1" height="1" fill="#f0c090"/>
  <rect x="11" y="78" width="3" height="1" fill="#f0c090"/>
  <rect x="14" y="81" width="4" height="1" fill="#ffd8a8"/>
  <rect x="11" y="82" width="10" height="6" fill="#f8f9fa"/>
  <rect x="11" y="82" width="1" height="6" fill="#dee2e6"/>
  <rect x="20" y="82" width="1" height="6" fill="#dee2e6"/>
  <rect x="11" y="87" width="10" height="1" fill="#dee2e6"/>
  <rect x="12" y="82" width="3" height="3" fill="#4dabf7"/>
  <rect x="9" y="82" width="2" height="5" fill="#f8f9fa"/>
  <rect x="9" y="87" width="2" height="1" fill="#ffd8a8"/>
  <rect x="12" y="88" width="3" height="4" fill="#495057"/>
  <rect x="16" y="88" width="3" height="4" fill="#495057"/>
  <rect x="12" y="92" width="3" height="3" fill="#343a40"/>
  <rect x="16" y="92" width="3" height="3" fill="#343a40"/>
  <rect x="43" y="66" width="10" height="1" fill="#4a3728"/>
  <rect x="42" y="67" width="12" height="2" fill="#4a3728"/>
  <rect x="41" y="69" width="13" height="3" fill="#4a3728"/>
  <rect x="44" y="67" width="6" height="1" fill="#362818"/>
  <rect x="42" y="69" width="6" height="1" fill="#362818"/>
  <rect x="42" y="72" width="12" height="8" fill="#ffd8a8"/>
  <rect x="43" y="80" width="10" height="1" fill="#ffd8a8"/>
  <rect x="43" y="79" width="10" height="1" fill="#f0c090"/>
  <rect x="54" y="74" width="2" height="3" fill="#ffd8a8"/>
  <rect x="54" y="76" width="2" height="1" fill="#f0c090"/>
  <rect x="41" y="72" width="1" height="8" fill="#362818"/>
  <rect x="54" y="72" width="1" height="8" fill="#362818"/>
  <rect x="43" y="81" width="10" height="1" fill="#362818"/>
  <rect x="42" y="80" width="1" height="1" fill="#362818"/>
  <rect x="53" y="80" width="1" height="1" fill="#362818"/>
  <rect x="44" y="75" width="2" height="2" fill="#2b2b2b"/>
  <rect x="44" y="75" width="1" height="1" fill="#ffffff"/>
  <rect x="42" y="77" width="1" height="1" fill="#f0c090"/>
  <rect x="43" y="78" width="3" height="1" fill="#f0c090"/>
  <rect x="46" y="81" width="4" height="1" fill="#ffd8a8"/>
  <rect x="43" y="82" width="10" height="6" fill="#f8f9fa"/>
  <rect x="43" y="82" width="1" height="6" fill="#dee2e6"/>
  <rect x="52" y="82" width="1" height="6" fill="#dee2e6"/>
  <rect x="43" y="87" width="10" height="1" fill="#dee2e6"/>
  <rect x="44" y="82" width="3" height="3" fill="#4dabf7"/>
  <rect x="41" y="81" width="2" height="5" fill="#f8f9fa"/>
  <rect x="41" y="86" width="2" height="1" fill="#ffd8a8"/>
  <rect x="42" y="88" width="3" height="4" fill="#495057"/>
  <rect x="42" y="92" width="3" height="3" fill="#343a40"/>
  <rect x="49" y="88" width="3" height="3" fill="#495057"/>
  <rect x="49" y="91" width="3" height="3" fill="#343a40"/>
  <rect x="75" y="66" width="10" height="1" fill="#4a3728"/>
  <rect x="74" y="67" width="12" height="2" fill="#4a3728"/>
  <rect x="73" y="69" width="13" height="3" fill="#4a3728"/>
  <rect x="76" y="67" width="6" height="1" fill="#362818"/>
  <rect x="74" y="69" width="6" height="1" fill="#362818"/>
  <rect x="74" y="72" width="12" height="8" fill="#ffd8a8"/>
  <rect x="75" y="80" width="10" height="1" fill="#ffd8a8"/>
  <rect x="75" y="79" width="10" height="1" fill="#f0c090"/>
  <rect x="86" y="74" width="2" height="3" fill="#ffd8a8"/>
  <rect x="86" y="76" width="2" height="1" fill="#f0c090"/>
  <rect x="73" y="72" width="1" height="8" fill="#362818"/>
  <rect x="86" y="72" width="1" height="8" fill="#362818"/>
  <rect x="75" y="81" width="10" height="1" fill="#362818"/>
  <rect x="74" y="80" width="1" height="1" fill="#362818"/>
  <rect x="85" y="80" width="1" height="1" fill="#362818"/>
  <rect x="76" y="75" width="2" height="2" fill="#2b2b2b"/>
  <rect x="76" y="75" width="1" height="1" fill="#ffffff"/>
  <rect x="74" y="77" width="1" height="1" fill="#f0c090"/>
  <rect x="75" y="78" width="3" height="1" fill="#f0c090"/>
  <rect x="78" y="81" width="4" height="1" fill="#ffd8a8"/>
  <rect x="75" y="82" width="10" height="6" fill="#f8f9fa"/>
  <rect x="75" y="82" width="1" height="6" fill="#dee2e6"/>
  <rect x="84" y="82" width="1" height="6" fill="#dee2e6"/>
  <rect x="75" y="87" width="10" height="1" fill="#dee2e6"/>
  <rect x="76" y="82" width="3" height="3" fill="#4dabf7"/>
  <rect x="73" y="83" width="2" height="5" fill="#f8f9fa"/>
  <rect x="73" y="88" width="2" height="1" fill="#ffd8a8"/>
  <rect x="79" y="88" width="3" height="4" fill="#495057"/>
  <rect x="79" y="92" width="3" height="3" fill="#343a40"/>
  <rect x="76" y="88" width="3" height="3" fill="#495057"/>
  <rect x="76" y="91" width="3" height="3" fill="#343a40"/>
  <rect x="11" y="98" width="10" height="1" fill="#4a3728"/>
  <rect x="10" y="99" width="12" height="2" fill="#4a3728"/>
  <rect x="10" y="101" width="13" height="3" fill="#4a3728"/>
  <rect x="14" y="99" width="6" height="1" fill="#362818"/>
  <rect x="16" y="101" width="6" height="1" fill="#362818"/>
  <rect x="10" y="104" width="12" height="8" fill="#ffd8a8"/>
  <rect x="11" y="112" width="10" height="1" fill="#ffd8a8"/>
  <rect x="11" y="111" width="10" height="1" fill="#f0c090"/>
  <rect x="8" y="106" width="2" height="3" fill="#ffd8a8"/>
  <rect x="8" y="108" width="2" height="1" fill="#f0c090"/>
  <rect x="22" y="104" width="1" height="8" fill="#362818"/>
  <rect x="9" y="104" width="1" height="8" fill="#362818"/>
  <rect x="11" y="113" width="10" height="1" fill="#362818"/>
  <rect x="21" y="112" width="1" height="1" fill="#362818"/>
  <rect x="10" y="112" width="1" height="1" fill="#362818"/>
  <rect x="18" y="107" width="2" height="2" fill="#2b2b2b"/>
  <rect x="19" y="107" width="1" height="1" fill="#ffffff"/>
  <rect x="21" y="109" width="1" height="1" fill="#f0c090"/>
  <rect x="18" y="110" width="3" height="1" fill="#f0c090"/>
  <rect x="14" y="113" width="4" height="1" fill="#ffd8a8"/>
  <rect x="11" y="114" width="10" height="6" fill="#f8f9fa"/>
  <rect x="20" y="114" width="1" height="6" fill="#dee2e6"/>
  <rect x="11" y="114" width="1" height="6" fill="#dee2e6"/>
  <rect x="11" y="119" width="10" height="1" fill="#dee2e6"/>
  <rect x="17" y="114" width="3" height="3" fill="#4dabf7"/>
  <rect x="21" y="114" width="2" height="5" fill="#f8f9fa"/>
  <rect x="21" y="119" width="2" height="1" fill="#ffd8a8"/>
  <rect x="17" y="120" width="3" height="4" fill="#495057"/>
  <rect x="13" y="120" width="3" height="4" fill="#495057"/>
  <rect x="17" y="124" width="3" height="3" fill="#343a40"/>
  <rect x="13" y="124" width="3" height="3" fill="#343a40"/>
  <rect x="43" y="98" width="10" height="1" fill="#4a3728"/>
  <rect x="42" y="99" width="12" height="2" fill="#4a3728"/>
  <rect x="42" y="101" width="13" height="3" fill="#4a3728"/>
  <rect x="46" y="99" width="6" height="1" fill="#362818"/>
  <rect x="48" y="101" width="6" height="1" fill="#362818"/>
  <rect x="42" y="104" width="12" height="8" fill="#ffd8a8"/>
  <rect x="43" y="112" width="10" height="1" fill="#ffd8a8"/>
  <rect x="43" y="111" width="10" height="1" fill="#f0c090"/>
  <rect x="40" y="106" width="2" height="3" fill="#ffd8a8"/>
  <rect x="40" y="108" width="2" height="1" fill="#f0c090"/>
  <rect x="54" y="104" width="1" height="8" fill="#362818"/>
  <rect x="41" y="104" width="1" height="8" fill="#362818"/>
  <rect x="43" y="113" width="10" height="1" fill="#362818"/>
  <rect x="53" y="112" width="1" height="1" fill="#362818"/>
  <rect x="42" y="112" width="1" height="1" fill="#362818"/>
  <rect x="50" y="107" width="2" height="2" fill="#2b2b2b"/>
  <rect x="51" y="107" width="1" height="1" fill="#ffffff"/>
  <rect x="53" y="109" width="1" height="1" fill="#f0c090"/>
  <rect x="50" y="110" width="3" height="1" fill="#f0c090"/>
  <rect x="46" y="113" width="4" height="1" fill="#ffd8a8"/>
  <rect x="43" y="114" width="10" height="6" fill="#f8f9fa"/>
  <rect x="52" y="114" width="1" height="6" fill="#dee2e6"/>
  <rect x="43" y="114" width="1" height="6" fill="#dee2e6"/>
  <rect x="43" y="119" width="10" height="1" fill="#dee2e6"/>
  <rect x="49" y="114" width="3" height="3" fill="#4dabf7"/>
  <rect x="53" y="113" width="2" height="5" fill="#f8f9fa"/>
  <rect x="53" y="118" width="2" height="1" fill="#ffd8a8"/>
  <rect x="51" y="120" width="3" height="4" fill="#495057"/>
  <rect x="51" y="124" width="3" height="3" fill="#343a40"/>
  <rect x="44" y="120" width="3" height="3" fill="#495057"/>
  <rect x="44" y="123" width="3" height="3" fill="#343a40"/>
  <rect x="75" y="98" width="10" height="1" fill="#4a3728"/>
  <rect x="74" y="99" width="12" height="2" fill="#4a3728"/>
  <rect x="74" y="101" width="13" height="3" fill="#4a3728"/>
  <rect x="78" y="99" width="6" height="1" fill="#362818"/>
  <rect x="80" y="101" width="6" height="1" fill="#362818"/>
  <rect x="74" y="104" width="12" height="8" fill="#ffd8a8"/>
  <rect x="75" y="112" width="10" height="1" fill="#ffd8a8"/>
  <rect x="75" y="111" width="10" height="1" fill="#f0c090"/>
  <rect x="72" y="106" width="2" height="3" fill="#ffd8a8"/>
  <rect x="72" y="108" width="2" height="1" fill="#f0c090"/>
  <rect x="86" y="104" width="1" height="8" fill="#362818"/>
  <rect x="73" y="104" width="1" height="8" fill="#362818"/>
  <rect x="75" y="113" width="10" height="1" fill="#362818"/>
  <rect x="85" y="112" width="1" height="1" fill="#362818"/>
  <rect x="74" y="112" width="1" height="1" fill="#362818"/>
  <rect x="82" y="107" width="2" height="2" fill="#2b2b2b"/>
  <rect x="83" y="107" width="1" height="1" fill="#ffffff"/>
  <rect x="85" y="109" width="1" height="1" fill="#f0c090"/>
  <rect x="82" y="110" width="3" height="1" fill="#f0c090"/>
  <rect x="78" y="113" width="4" height="1" fill="#ffd8a8"/>
  <rect x="75" y="114" width="10" height="6" fill="#f8f9fa"/>
  <rect x="84" y="114" width="1" height="6" fill="#dee2e6"/>
  <rect x="75" y="114" width="1" height="6" fill="#dee2e6"/>
  <rect x="75" y="119" width="10" height="1" fill="#dee2e6"/>
  <rect x="81" y="114" width="3" height="3" fill="#4dabf7"/>
  <rect x="85" y="115" width="2" height="5" fill="#f8f9fa"/>
  <rect x="85" y="120" width="2" height="1" fill="#ffd8a8"/>
  <rect x="78" y="120" width="3" height="4" fill="#495057"/>
  <rect x="78" y="124" width="3" height="3" fill="#343a40"/>
  <rect x="81" y="120" width="3" height="3" fill="#495057"/>
  <rect x="81" y="123" width="3" height="3" fill="#343a40"/>
</svg>
