<svg xmlns="http://www.w3.org/2000/svg" width="32" height="32" viewBox="0 0 32 32" shape-rendering="crispEdges">
  <rect x="11" y="2" width="10" height="1" fill="#4a3728"/>
  <rect x="10" y="3" width="12" height="2" fill="#4a3728"/>
  <rect x="10" y="5" width="13" height="3" fill="#4a3728"/>
  <rect x="14" y="3" width="6" height="1" fill="#362818"/>
  <rect x="16" y="5" width="6" height="1" fill="#362818"/>
  <rect x="10" y="8" width="12" height="8" fill="#ffd8a8"/>
  <rect x="11" y="16" width="10" height="1" fill="#ffd8a8"/>
  <rect x="11" y="15" width="10" height="1" fill="#f0c090"/>
  <rect x="8" y="10" width="2" height="3" fill="#ffd8a8"/>
  <rect x="8" y="12" width="2" height="1" fill="#f0c090"/>
  <rect x="22" y="8" width="1" height="8" fill="#362818"/>
  <rect x="9" y="8" width="1" height="8" fill="#362818"/>
  <rect x="11" y="17" width="10" height="1" fill="#362818"/>
  <rect x="21" y="16" width="1" height="1" fill="#362818"/>
  <rect x="10" y="16" width="1" height="1" fill="#362818"/>
  <rect x="18" y="11" width="2" height="2" fill="#2b2b2b"/>
  <rect x="19" y="11" width="1" height="1" fill="#ffffff"/>
  <rect x="21" y="13" width="1" height="1" fill="#f0c090"/>
  <rect x="18" y="14" width="3" height="1" fill="#f0c090"/>
  <rect x="14" y="17" width="4" height="1" fill="#ffd8a8"/>
  <rect x="11" y="18" width="10" height="6" fill="#f8f9fa"/>
  <rect x="20" y="18" width="1" height="6" fill="#dee2e6"/>
  <rect x="11" y="18" width="1" height="6" fill="#dee2e6"/>
  <rect x="11" y="23" width="10" height="1" fill="#dee2e6"/>
  <rect x="17" y="18" width="3" height="3" fill="#4dabf7"/>
  <rect x="21" y="18" width="2" height="5" fill="#f8f9fa"/>
  <rect x="21" y="23" width="2" height="1" fill="#ffd8a8"/>
  <rect x="17" y="24" width="3" height="4" fill="#495057"/>
  <rect x="13" y="24" width="3" height="4" fill="#495057"/>
  <rect x="17" y="28" width="3" height="3" fill="#343a40"/>
  <rect x="13" y="28" width="3" height="3" fill="#343a40"/>
</svg>
