<svg xmlns="http://www.w3.org/2000/svg" width="32" height="32" viewBox="0 0 32 32" shape-rendering="crispEdges">
  <rect x="11" y="2" width="10" height="1" fill="#862e0b"/>
  <rect x="10" y="3" width="12" height="2" fill="#862e0b"/>
  <rect x="9" y="5" width="14" height="12" fill="#862e0b"/>
  <rect x="12" y="3" width="6" height="1" fill="#6a2108"/>
  <rect x="10" y="6" width="10" height="1" fill="#6a2108"/>
  <rect x="11" y="10" width="8" height="1" fill="#6a2108"/>
  <rect x="9" y="8" width="1" height="8" fill="#6a2108"/>
  <rect x="22" y="8" width="1" height="8" fill="#6a2108"/>
  <rect x="11" y="17" width="10" height="1" fill="#6a2108"/>
  <rect x="10" y="16" width="1" height="1" fill="#6a2108"/>
  <rect x="21" y="16" width="1" height="1" fill="#6a2108"/>
  <rect x="14" y="17" width="4" height="1" fill="#ffd8a8"/>
  <rect x="11" y="18" width="10" height="6" fill="#d0ebff"/>
  <rect x="11" y="18" width="1" height="6" fill="#a5d8ff"/>
  <rect x="20" y="18" width="1" height="6" fill="#a5d8ff"/>
  <rect x="11" y="23" width="10" height="1" fill="#a5d8ff"/>
  <rect x="15" y="19" width="2" height="3" fill="#a5d8ff"/>
  <rect x="9" y="18" width="2" height="5" fill="#d0ebff"/>
  <rect x="9" y="23" width="2" height="1" fill="#ffd8a8"/>
  <rect x="21" y="18" width="2" height="5" fill="#d0ebff"/>
  <rect x="21" y="23" width="2" height="1" fill="#ffd8a8"/>
  <rect x="12" y="24" width="3" height="4" fill="#5c636a"/>
  <rect x="17" y="24" width="3" height="4" fill="#5c636a"/>
  <rect x="12" y="28" width="3" height="3" fill="#343a40"/>
  <rect x="17" y="28" width="3" height="3" fill="#343a40"/>
</svg>
