<svg xmlns="http://www.w3.org/2000/svg" width="32" height="32" viewBox="0 0 32 32" shape-rendering="crispEdges">
  <rect x="0" y="0" width="32" height="32" fill="#adb5bd"/>
  <rect x="2" y="2" width="28" height="28" fill="#ced4da"/>
  <rect x="3" y="3" width="26" height="2" fill="#dee2e6"/>
  <rect x="6" y="6" width="20" height="20" fill="#868e96"/>
  <rect x="8" y="8" width="16" height="16" fill="#6c757d"/>
  <rect x="10" y="10" width="12" height="12" fill="#74c0fc"/>
  <rect x="12" y="12" width="6" height="6" fill="#a5d8ff"/>
  <rect x="14" y="2" width="4" height="6" fill="#495057"/>
  <rect x="15" y="3" width="2" height="4" fill="#6c757d"/>
  <rect x="11" y="4" width="2" height="2" fill="#339af0"/>
  <rect x="19" y="4" width="2" height="2" fill="#e03131"/>
  <rect x="15" y="15" width="2" height="2" fill="#495057"/>
  <rect x="0" y="0" width="32" height="1" fill="#6c757d"/>
  <rect x="0" y="31" width="32" height="1" fill="#6c757d"/>
  <rect x="0" y="0" width="1" height="32" fill="#6c757d"/>
  <rect x="31" y="0" width="1" height="32" fill="#6c757d"/>
</svg>
