<svg xmlns="http://www.w3.org/2000/svg" width="64" height="32" viewBox="0 0 64 32" shape-rendering="crispEdges">
  <rect x="0" y="4" width="64" height="28" fill="#5c4a32"/>
  <rect x="2" y="4" width="60" height="8" fill="#7a6244"/>
  <rect x="4" y="6" width="56" height="4" fill="#8b7355"/>
  <rect x="8" y="7" width="20" height="1" fill="#917b5f"/>
  <rect x="34" y="8" width="18" height="1" fill="#917b5f"/>
  <rect x="44" y="10" width="14" height="12" fill="#adb5bd"/>
  <rect x="46" y="12" width="10" height="8" fill="#868e96"/>
  <rect x="48" y="14" width="6" height="4" fill="#74c0fc"/>
  <rect x="50" y="10" width="2" height="3" fill="#6c757d"/>
  <rect x="6" y="16" width="30" height="12" fill="#4a3a25"/>
  <rect x="8" y="18" width="26" height="8" fill="#6b5535"/>
  <rect x="18" y="21" width="6" height="2" fill="#adb5bd"/>
  <rect x="4" y="28" width="4" height="4" fill="#4a3a25"/>
  <rect x="56" y="28" width="4" height="4" fill="#4a3a25"/>
  <rect x="0" y="3" width="64" height="1" fill="#3d2e1c"/>
</svg>
