<svg xmlns="http://www.w3.org/2000/svg" width="32" height="32" viewBox="0 0 32 32" shape-rendering="crispEdges">
  <rect x="13" y="3" width="6" height="3" fill="#868e96"/>
  <rect x="12" y="2" width="8" height="2" fill="#495057"/>
  <rect x="12" y="2" width="8" height="1" fill="#343a40"/>
  <rect x="5" y="6" width="22" height="24" fill="#f8f9fa"/>
  <rect x="6" y="7" width="3" height="22" fill="#ffffff"/>
  <rect x="24" y="7" width="2" height="22" fill="#dee2e6"/>
  <rect x="26" y="6" width="1" height="24" fill="#ced4da"/>
  <rect x="5" y="6" width="22" height="1" fill="#adb5bd"/>
  <rect x="5" y="29" width="22" height="1" fill="#adb5bd"/>
  <rect x="5" y="6" width="1" height="24" fill="#adb5bd"/>
  <rect x="7" y="6" width="5" height="2" fill="#868e96"/>
  <rect x="7" y="5" width="1" height="2" fill="#495057"/>
  <rect x="11" y="5" width="1" height="2" fill="#495057"/>
  <rect x="8" y="7" width="3" height="1" fill="#adb5bd"/>
  <rect x="6" y="24" width="20" height="1" fill="#a5d8ff"/>
  <rect x="6" y="25" width="20" height="4" fill="#74c0fc"/>
</svg>
