<svg xmlns="http://www.w3.org/2000/svg" width="64" height="32" viewBox="0 0 64 32" shape-rendering="crispEdges">
  <rect x="0" y="4" width="64" height="28" fill="#dee2e6"/>
  <rect x="2" y="4" width="60" height="8" fill="#e9ecef"/>
  <rect x="4" y="6" width="56" height="4" fill="#f1f3f5"/>
  <rect x="10" y="7" width="12" height="1" fill="#ced4da"/>
  <rect x="30" y="8" width="16" height="1" fill="#ced4da"/>
  <rect x="4" y="28" width="4" height="4" fill="#adb5bd"/>
  <rect x="56" y="28" width="4" height="4" fill="#adb5bd"/>
  <rect x="3" y="30" width="6" height="2" fill="#868e96"/>
  <rect x="55" y="30" width="6" height="2" fill="#868e96"/>
  <rect x="20" y="6" width="24" height="18" fill="#a5d8ff"/>
  <rect x="24" y="8" width="16" height="14" fill="#d0ebff"/>
  <rect x="25" y="9" width="2" height="10" fill="#e7f5ff"/>
  <rect x="28" y="16" width="8" height="2" fill="#f8f9fa"/>
  <rect x="28" y="10" width="8" height="4" fill="#343a40"/>
  <rect x="29" y="11" width="6" height="2" fill="#69db7c"/>
  <rect x="22" y="22" width="20" height="4" fill="#868e96"/>
  <rect x="0" y="2" width="64" height="2" fill="#ced4da"/>
</svg>
